<svg xmlns="http://www.w3.org/2000/svg" viewBox="0 0 1200 800">
  <defs>
    <linearGradient id="partner_bg" x1="0%" y1="0%" x2="100%" y2="100%">
      <stop offset="0%" style="stop-color:#e8f5e9;stop-opacity:1" />
      <stop offset="100%" style="stop-color:#c8e6c9;stop-opacity:1" />
    </linearGradient>
    <linearGradient id="partner_accent" x1="0%" y1="0%" x2="100%" y2="100%">
      <stop offset="0%" style="stop-color:#388e3c;stop-opacity:1" />
      <stop offset="100%" style="stop-color:#2e7d32;stop-opacity:1" />
    </linearGradient>
  </defs>
  
  <rect width="1200" height="800" fill="url(#partner_bg)"/>
  
  <!-- Left - Building/Institution -->
  <g transform="translate(100, 150)">
    <rect x="10" y="40" width="120" height="150" fill="#5e35b1" stroke="#3e1f47" stroke-width="2"/>
    <!-- Windows -->
    <rect x="20" y="60" width="20" height="20" fill="#64b5f6" stroke="#1e88e5" stroke-width="1"/>
    <rect x="50" y="60" width="20" height="20" fill="#64b5f6" stroke="#1e88e5" stroke-width="1"/>
    <rect x="80" y="60" width="20" height="20" fill="#64b5f6" stroke="#1e88e5" stroke-width="1"/>
    <rect x="20" y="95" width="20" height="20" fill="#64b5f6" stroke="#1e88e5" stroke-width="1"/>
    <rect x="50" y="95" width="20" height="20" fill="#64b5f6" stroke="#1e88e5" stroke-width="1"/>
    <rect x="80" y="95" width="20" height="20" fill="#64b5f6" stroke="#1e88e5" stroke-width="1"/>
    <rect x="20" y="130" width="20" height="20" fill="#64b5f6" stroke="#1e88e5" stroke-width="1"/>
    <rect x="50" y="130" width="20" height="20" fill="#64b5f6" stroke="#1e88e5" stroke-width="1"/>
    <rect x="80" y="130" width="20" height="20" fill="#64b5f6" stroke="#1e88e5" stroke-width="1"/>
    <!-- Door -->
    <rect x="40" y="160" width="30" height="40" fill="#8d6e63" stroke="#5d4037" stroke-width="1"/>
    <!-- Roof -->
    <polygon points="10,40 70,0 130,40" fill="#d32f2f"/>
  </g>
  
  <!-- Center - Handshake/Agreement -->
  <g transform="translate(500, 250)">
    <ellipse cx="50" cy="50" rx="80" ry="70" fill="url(#partner_accent)" opacity="0.3"/>
    <!-- Left arm -->
    <path d="M 20 60 L 40 50 L 50 65" stroke="#388e3c" stroke-width="8" fill="none" stroke-linecap="round"/>
    <!-- Right arm -->
    <path d="M 80 60 L 60 50 L 50 65" stroke="#1b5e20" stroke-width="8" fill="none" stroke-linecap="round"/>
    <!-- Hands -->
    <circle cx="40" cy="50" r="8" fill="#388e3c"/>
    <circle cx="60" cy="50" r="8" fill="#1b5e20"/>
    <!-- Agreement document -->
    <rect x="30" y="90" width="40" height="50" fill="#fff9c4" stroke="#f57f17" stroke-width="2" rx="2"/>
    <line x1="35" y1="105" x2="65" y2="105" stroke="#f57f17" stroke-width="1"/>
    <line x1="35" y1="115" x2="65" y2="115" stroke="#f57f17" stroke-width="1"/>
    <line x1="35" y1="125" x2="50" y2="125" stroke="#f57f17" stroke-width="1"/>
  </g>
  
  <!-- Right - Network/Connections -->
  <g transform="translate(900, 200)">
    <!-- Central hub -->
    <circle cx="60" cy="60" r="18" fill="url(#partner_accent)"/>
    <!-- Surrounding partners -->
    <circle cx="20" cy="30" r="12" fill="#c8e6c9" stroke="#388e3c" stroke-width="2"/>
    <circle cx="100" cy="30" r="12" fill="#c8e6c9" stroke="#388e3c" stroke-width="2"/>
    <circle cx="20" cy="90" r="12" fill="#c8e6c9" stroke="#2e7d32" stroke-width="2"/>
    <circle cx="100" cy="90" r="12" fill="#c8e6c9" stroke="#2e7d32" stroke-width="2"/>
    <!-- Connection lines -->
    <line x1="60" y1="60" x2="20" y2="30" stroke="#388e3c" stroke-width="2" opacity="0.6"/>
    <line x1="60" y1="60" x2="100" y2="30" stroke="#388e3c" stroke-width="2" opacity="0.6"/>
    <line x1="60" y1="60" x2="20" y2="90" stroke="#2e7d32" stroke-width="2" opacity="0.6"/>
    <line x1="60" y1="60" x2="100" y2="90" stroke="#2e7d32" stroke-width="2" opacity="0.6"/>
  </g>
  
  <!-- Bottom - Collaboration timeline -->
  <g transform="translate(150, 500)">
    <!-- Timeline line -->
    <line x1="0" y1="30" x2="300" y2="30" stroke="#388e3c" stroke-width="3"/>
    <!-- Points -->
    <circle cx="0" cy="30" r="8" fill="#4caf50"/>
    <text x="-20" y="55" font-family="Arial" font-size="11" fill="#212121">Phase 1</text>
    
    <circle cx="100" cy="30" r="8" fill="#4caf50"/>
    <text x="80" y="55" font-family="Arial" font-size="11" fill="#212121">Phase 2</text>
    
    <circle cx="200" cy="30" r="8" fill="#4caf50"/>
    <text x="180" y="55" font-family="Arial" font-size="11" fill="#212121">Phase 3</text>
    
    <circle cx="300" cy="30" r="8" fill="#1b5e20"/>
    <text x="280" y="55" font-family="Arial" font-size="11" fill="#212121">Launch</text>
  </g>
  
  <!-- Right - Growth chart -->
  <g transform="translate(920, 520)">
    <rect x="0" y="70" width="18" height="50" fill="#388e3c"/>
    <rect x="22" y="50" width="18" height="70" fill="#4caf50"/>
    <rect x="44" y="30" width="18" height="90" fill="#66bb6a"/>
    <rect x="66" y="10" width="18" height="110" fill="#81c784"/>
    <line x1="0" y1="120" x2="84" y2="120" stroke="#a5d6a7" stroke-width="2"/>
  </g>
</svg>