<svg xmlns="http://www.w3.org/2000/svg" viewBox="0 0 1200 800">
  <defs>
    <linearGradient id="p_bg" x1="0%" y1="0%" x2="100%" y2="100%">
      <stop offset="0%" style="stop-color:#fafafa;stop-opacity:1" />
      <stop offset="100%" style="stop-color:#f0f4f8;stop-opacity:1" />
    </linearGradient>
    <linearGradient id="p_sky" x1="0%" y1="0%" x2="100%" y2="100%">
      <stop offset="0%" style="stop-color:#e3f2fd;stop-opacity:1" />
      <stop offset="100%" style="stop-color:#b3e5fc;stop-opacity:1" />
    </linearGradient>
    <filter id="p_shadow" x="-50%" y="-50%" width="200%" height="200%">
      <feDropShadow dx="4" dy="6" stdDeviation="4" flood-opacity="0.12"/>
    </filter>
  </defs>
  
  <rect width="1200" height="800" fill="url(#p_bg)"/>
  
  <!-- Sky gradient background -->
  <rect y="0" width="1200" height="400" fill="url(#p_sky)" opacity="0.4"/>
  
  <!-- Left - Corporate Building -->
  <g transform="translate(80, 200)" filter="url(#p_shadow)">
    <rect x="0" y="80" width="160" height="220" fill="#455a64" stroke="#263238" stroke-width="2" rx="4"/>
    <!-- Glass windows grid -->
    <g opacity="0.9">
      <rect x="15" y="100" width="18" height="18" fill="#81d4fa"/>
      <rect x="38" y="100" width="18" height="18" fill="#81d4fa"/>
      <rect x="61" y="100" width="18" height="18" fill="#81d4fa"/>
      <rect x="84" y="100" width="18" height="18" fill="#81d4fa"/>
      <rect x="107" y="100" width="18" height="18" fill="#81d4fa"/>
      <rect x="130" y="100" width="18" height="18" fill="#81d4fa"/>
      
      <rect x="15" y="128" width="18" height="18" fill="#81d4fa"/>
      <rect x="38" y="128" width="18" height="18" fill="#81d4fa"/>
      <rect x="61" y="128" width="18" height="18" fill="#81d4fa"/>
      <rect x="84" y="128" width="18" height="18" fill="#81d4fa"/>
      <rect x="107" y="128" width="18" height="18" fill="#81d4fa"/>
      <rect x="130" y="128" width="18" height="18" fill="#81d4fa"/>
      
      <rect x="15" y="156" width="18" height="18" fill="#81d4fa"/>
      <rect x="38" y="156" width="18" height="18" fill="#81d4fa"/>
      <rect x="61" y="156" width="18" height="18" fill="#81d4fa"/>
      <rect x="84" y="156" width="18" height="18" fill="#81d4fa"/>
      <rect x="107" y="156" width="18" height="18" fill="#81d4fa"/>
      <rect x="130" y="156" width="18" height="18" fill="#81d4fa"/>
      
      <rect x="15" y="184" width="18" height="18" fill="#81d4fa"/>
      <rect x="38" y="184" width="18" height="18" fill="#81d4fa"/>
      <rect x="61" y="184" width="18" height="18" fill="#81d4fa"/>
      <rect x="84" y="184" width="18" height="18" fill="#81d4fa"/>
      <rect x="107" y="184" width="18" height="18" fill="#81d4fa"/>
      <rect x="130" y="184" width="18" height="18" fill="#81d4fa"/>
    </g>
    <!-- Door entrance -->
    <rect x="55" y="270" width="50" height="60" fill="#263238" stroke="#1a1a1a" stroke-width="1"/>
    <circle cx="100" cy="300" r="3" fill="#ffd54f"/>
    <!-- Building name plate -->
    <rect x="5" y="340" width="150" height="25" fill="#fff9c4" stroke="#f57f17" stroke-width="1" rx="2"/>
    <text x="80" y="357" font-size="11" fill="#f57f17" text-anchor="middle" font-weight="bold">INSTITUTIONAL</text>
  </g>
  
  <!-- Center - Handshake/Network -->
  <g transform="translate(500, 280)" filter="url(#p_shadow)">
    <!-- Connection circles -->
    <circle cx="0" cy="0" r="25" fill="#1e88e5" opacity="0.9"/>
    <circle cx="80" cy="0" r="25" fill="#43a047" opacity="0.9"/>
    <circle cx="40" cy="70" r="25" fill="#fb8c00" opacity="0.9"/>
    
    <!-- Connection lines -->
    <line x1="20" y1="15" x2="60" y2="15" stroke="#1e88e5" stroke-width="2" opacity="0.5"/>
    <line x1="15" y1="20" x2="40" y2="60" stroke="#43a047" stroke-width="2" opacity="0.5"/>
    <line x1="70" y1="20" x2="40" y2="60" stroke="#fb8c00" stroke-width="2" opacity="0.5"/>
    
    <!-- Center node -->
    <circle cx="40" cy="0" r="35" fill="#ffeb3b" stroke="#fbc02d" stroke-width="2"/>
    <text x="40" y="8" font-size="24" fill="#f57f17" text-anchor="middle" font-weight="bold">+</text>
  </g>
  
  <!-- Right - Partnership Growth Chart -->
  <g transform="translate(850, 250)" filter="url(#p_shadow)">
    <rect x="0" y="0" width="200" height="180" fill="#ffffff" stroke="#3f51b5" stroke-width="2" rx="4"/>
    <!-- Header -->
    <rect x="0" y="0" width="200" height="30" fill="#3f51b5" rx="4"/>
    <text x="100" y="20" font-size="12" fill="#ffffff" text-anchor="middle" font-weight="bold">PARTNERSHIP GROWTH</text>
    
    <!-- Bar chart -->
    <g transform="translate(20, 60)">
      <rect x="0" y="70" width="20" height="50" fill="#ef5350" opacity="0.8"/>
      <rect x="25" y="55" width="20" height="65" fill="#42a5f5" opacity="0.8"/>
      <rect x="50" y="35" width="20" height="85" fill="#66bb6a" opacity="0.8"/>
      <rect x="75" y="15" width="20" height="105" fill="#ab47bc" opacity="0.8"/>
      <rect x="100" y="5" width="20" height="115" fill="#ffa726" opacity="0.8"/>
      <!-- X-axis -->
      <line x1="0" y1="120" x2="120" y2="120" stroke="#bdbdbd" stroke-width="1"/>
    </g>
  </g>
  
  <!-- Bottom - Collaboration Timeline -->
  <g transform="translate(300, 580)" filter="url(#p_shadow)">
    <!-- Timeline line -->
    <line x1="0" y1="30" x2="400" y2="30" stroke="#1e88e5" stroke-width="3" opacity="0.3"/>
    
    <!-- Timeline points -->
    <circle cx="0" cy="30" r="12" fill="#1e88e5"/>
    <text x="0" y="65" font-size="11" fill="#1e88e5" text-anchor="middle" font-weight="bold">Year 1</text>
    
    <circle cx="130" cy="30" r="12" fill="#43a047"/>
    <text x="130" y="65" font-size="11" fill="#43a047" text-anchor="middle" font-weight="bold">Year 2</text>
    
    <circle cx="260" cy="30" r="12" fill="#fb8c00"/>
    <text x="260" y="65" font-size="11" fill="#fb8c00" text-anchor="middle" font-weight="bold">Year 3</text>
    
    <circle cx="400" cy="30" r="12" fill="#ab47bc"/>
    <text x="400" y="65" font-size="11" fill="#ab47bc" text-anchor="middle" font-weight="bold">Year 4+</text>
  </g>
</svg>
